<?xml version="1.0" encoding="UTF-8" standalone="no"?>
<!DOCTYPE svg PUBLIC "-//W3C//DTD SVG 1.1//EN" "http://www.w3.org/Graphics/SVG/1.1/DTD/svg11.dtd">
<svg version="1.1" xmlns="http://www.w3.org/2000/svg" xmlns:xlink="http://www.w3.org/1999/xlink" preserveAspectRatio="xMidYMid meet" viewBox="0 0 640 640" width="640" height="640"><defs><path d="M514.65 615.18C514.63 631.24 501.61 644.25 485.55 644.25C459.27 644.25 248.99 644.25 222.7 644.25C206.66 644.28 193.64 631.3 193.61 615.26C193.61 615.23 193.61 615.2 193.61 615.18C193.61 550.43 193.61 32.47 193.61 -32.28C193.61 -48.34 206.63 -61.37 222.7 -61.37C222.7 -61.37 222.7 -61.37 222.7 -61.37C225.33 -61.37 238.44 -61.37 262.04 -61.37C262.04 -58.35 262.04 -56.66 262.04 -56.33C262.04 -43.1 272.76 -32.37 285.99 -32.37C299.36 -32.37 406.31 -32.37 419.68 -32.37C424.79 -32.36 429.77 -33.99 433.88 -37.04C434.71 -37.64 435.5 -38.31 436.24 -39.02C440.97 -43.53 443.64 -49.79 443.63 -56.33C443.63 -56.66 443.63 -58.35 443.63 -61.37C468.78 -61.37 482.76 -61.37 485.55 -61.37C501.61 -61.38 514.64 -48.36 514.65 -32.29C514.65 -32.29 514.65 -32.28 514.65 -32.28C514.65 97.21 514.65 550.43 514.65 615.18Z" id="a25riiKt9D"></path><path d="M361.56 286.41C330.11 286.41 304.62 311.9 304.62 343.34C304.62 374.79 330.11 400.28 361.56 400.28C393 400.28 418.49 374.79 418.49 343.34C418.49 311.9 393 286.41 361.56 286.41Z" id="bqtVoIrLe"></path><path d="M507.5 -92.47L508.9 -92.33L510.28 -92.15L511.64 -91.91L512.98 -91.62L514.31 -91.28L515.61 -90.9L516.89 -90.47L518.14 -89.99L519.38 -89.47L520.58 -88.9L521.76 -88.29L522.91 -87.64L524.03 -86.95L525.13 -86.23L526.19 -85.46L527.21 -84.65L528.21 -83.81L529.17 -82.94L530.09 -82.03L530.98 -81.08L531.83 -80.11L532.64 -79.1L533.4 -78.07L534.13 -77L534.82 -75.91L535.46 -74.8L536.06 -73.65L536.61 -72.48L537.11 -71.29L537.56 -70.08L537.97 -68.85L538.33 -67.59L538.63 -66.32L538.88 -65.02L539.08 -63.72L539.22 -62.39L539.31 -61.05L539.33 -59.7L539.33 649.67L539.32 650.4L539.29 651.13L539.25 651.86L539.19 652.58L539.11 653.3L539.01 654.02L538.9 654.73L538.78 655.44L538.64 656.15L538.48 656.85L538.31 657.54L538.12 658.24L537.92 658.92L537.7 659.61L537.47 660.28L537.22 660.95L536.96 661.62L536.68 662.28L536.39 662.93L536.08 663.57L535.76 664.21L535.43 664.84L535.08 665.46L534.72 666.08L534.34 666.69L533.95 667.29L533.55 667.88L533.13 668.46L532.7 669.04L532.26 669.6L531.8 670.16L531.33 670.7L530.85 671.24L530.35 671.76L529.85 672.28L529.33 672.78L528.79 673.28L528.25 673.76L527.69 674.23L527.13 674.69L526.64 675.07L526.16 675.44L525.67 675.8L525.17 676.15L524.67 676.49L524.16 676.83L523.64 677.15L523.13 677.47L522.6 677.77L522.07 678.07L521.54 678.36L521.01 678.64L520.46 678.91L519.92 679.17L519.37 679.42L518.82 679.66L518.26 679.89L517.7 680.12L517.13 680.33L516.56 680.53L515.99 680.73L515.42 680.91L514.84 681.09L514.26 681.25L513.68 681.41L513.09 681.55L512.5 681.69L511.91 681.81L511.31 681.93L510.72 682.03L510.12 682.13L509.52 682.21L508.92 682.29L508.31 682.35L507.71 682.41L507.1 682.45L506.49 682.49L505.88 682.51L505.27 682.52L504.66 682.53L200.44 682.53L199.93 682.53L199.41 682.52L198.9 682.5L198.39 682.48L197.88 682.44L197.37 682.41L196.86 682.36L196.35 682.31L195.85 682.25L195.34 682.18L194.84 682.11L194.33 682.02L193.83 681.94L193.33 681.84L192.83 681.74L192.34 681.63L191.84 681.51L191.35 681.39L190.86 681.26L190.37 681.12L189.88 680.98L189.39 680.83L188.91 680.67L188.43 680.5L187.95 680.33L187.47 680.15L187 679.97L186.52 679.78L186.06 679.58L185.59 679.37L185.13 679.16L184.66 678.94L184.21 678.72L183.75 678.48L183.3 678.25L182.85 678L182.4 677.75L181.96 677.49L181.52 677.23L181.09 676.95L180.38 676.5L179.7 676.04L179.02 675.56L178.37 675.06L177.72 674.55L177.09 674.02L176.48 673.48L175.88 672.93L175.29 672.36L174.73 671.77L174.17 671.18L173.64 670.57L173.11 669.95L172.61 669.32L172.12 668.67L171.65 668.01L171.19 667.35L170.75 666.67L170.33 665.98L169.93 665.28L169.54 664.57L169.17 663.85L168.82 663.12L168.49 662.38L168.17 661.64L167.88 660.89L167.6 660.12L167.34 659.36L167.1 658.58L166.88 657.8L166.68 657.01L166.49 656.21L166.33 655.41L166.19 654.61L166.07 653.79L165.97 652.98L165.89 652.16L165.82 651.33L165.79 650.5L165.77 649.67L165.77 -59.7L165.8 -61.05L165.88 -62.39L166.02 -63.72L166.22 -65.02L166.47 -66.32L166.78 -67.59L167.13 -68.85L167.54 -70.08L167.99 -71.29L168.5 -72.48L169.05 -73.65L169.64 -74.8L170.28 -75.91L170.97 -77L171.7 -78.07L172.47 -79.1L173.27 -80.11L174.12 -81.08L175.01 -82.03L175.93 -82.94L176.89 -83.81L177.89 -84.65L178.92 -85.46L179.98 -86.23L181.07 -86.95L182.19 -87.64L183.34 -88.29L184.52 -88.9L185.73 -89.47L186.96 -89.99L188.21 -90.47L189.49 -90.9L190.8 -91.28L192.12 -91.62L193.46 -91.91L194.82 -92.15L196.2 -92.33L197.6 -92.47L199.01 -92.55L200.44 -92.58L271.94 -92.58L271.94 -86.05L271.96 -85.01L272.03 -83.98L272.14 -82.97L272.29 -81.96L272.48 -80.97L272.72 -79.99L272.99 -79.03L273.3 -78.08L273.65 -77.15L274.04 -76.23L274.46 -75.33L274.92 -74.46L275.42 -73.6L275.95 -72.76L276.51 -71.94L277.1 -71.15L277.72 -70.37L278.38 -69.62L279.06 -68.9L279.77 -68.2L280.51 -67.53L281.28 -66.88L282.07 -66.27L282.89 -65.68L283.73 -65.12L284.59 -64.59L285.48 -64.09L286.39 -63.62L287.32 -63.19L288.27 -62.78L289.24 -62.42L290.22 -62.09L291.23 -61.79L292.25 -61.53L293.28 -61.31L294.33 -61.13L295.4 -60.98L296.47 -60.88L297.56 -60.82L298.66 -60.8L399.45 -60.8L399.88 -60.8L400.3 -60.8L400.72 -60.82L401.15 -60.84L401.57 -60.87L401.99 -60.9L402.41 -60.94L402.83 -60.99L403.25 -61.04L403.67 -61.1L404.09 -61.16L404.5 -61.24L404.91 -61.31L405.33 -61.4L405.74 -61.49L406.15 -61.59L406.55 -61.69L406.96 -61.8L407.36 -61.92L407.77 -62.04L408.17 -62.17L408.57 -62.3L408.96 -62.44L409.36 -62.59L409.75 -62.74L410.14 -62.9L410.53 -63.06L410.91 -63.23L411.29 -63.41L411.67 -63.59L412.05 -63.78L412.42 -63.97L412.8 -64.17L413.17 -64.38L413.53 -64.59L413.9 -64.81L414.26 -65.03L414.61 -65.26L414.97 -65.5L415.32 -65.74L415.81 -66.09L416.3 -66.45L416.78 -66.82L417.24 -67.21L417.7 -67.6L418.14 -68.01L418.58 -68.42L419 -68.84L419.42 -69.28L419.82 -69.72L420.21 -70.17L420.59 -70.63L420.96 -71.09L421.31 -71.57L421.66 -72.05L421.99 -72.54L422.31 -73.04L422.62 -73.55L422.92 -74.06L423.21 -74.58L423.48 -75.1L423.74 -75.64L423.99 -76.18L424.23 -76.72L424.45 -77.27L424.66 -77.83L424.86 -78.39L425.04 -78.95L425.21 -79.52L425.37 -80.1L425.51 -80.68L425.64 -81.26L425.76 -81.85L425.86 -82.44L425.95 -83.03L426.02 -83.63L426.08 -84.23L426.13 -84.84L426.16 -85.44L426.17 -86.05L426.17 -92.58L504.66 -92.58L506.09 -92.55L507.5 -92.47ZM199.1 -90.55L197.77 -90.48L196.45 -90.35L195.15 -90.17L193.86 -89.95L192.6 -89.68L191.35 -89.36L190.12 -89L188.92 -88.6L187.73 -88.15L186.57 -87.66L185.44 -87.13L184.33 -86.56L183.24 -85.95L182.18 -85.3L181.16 -84.61L180.16 -83.89L179.19 -83.14L178.25 -82.35L177.35 -81.52L176.48 -80.67L175.64 -79.78L174.84 -78.87L174.08 -77.92L173.35 -76.95L172.67 -75.95L172.02 -74.93L171.42 -73.88L170.85 -72.8L170.34 -71.71L169.86 -70.59L169.43 -69.45L169.05 -68.29L168.72 -67.11L168.43 -65.91L168.19 -64.7L168.01 -63.47L167.87 -62.23L167.79 -60.97L167.76 -59.7L167.76 649.67L167.78 650.45L167.82 651.23L167.88 652L167.95 652.78L168.05 653.54L168.17 654.3L168.3 655.06L168.45 655.81L168.62 656.56L168.81 657.3L169.02 658.03L169.25 658.76L169.49 659.48L169.75 660.2L170.03 660.9L170.33 661.6L170.64 662.29L170.97 662.98L171.32 663.65L171.68 664.32L172.06 664.97L172.46 665.62L172.87 666.26L173.3 666.88L173.74 667.5L174.2 668.11L174.67 668.7L175.16 669.28L175.67 669.85L176.19 670.41L176.72 670.96L177.27 671.49L177.83 672.01L178.41 672.52L179 673.02L179.61 673.5L180.23 673.96L180.86 674.41L181.5 674.85L182.16 675.27L182.57 675.53L182.99 675.78L183.41 676.02L183.83 676.26L184.25 676.49L184.68 676.71L185.11 676.93L185.54 677.15L185.98 677.35L186.41 677.55L186.85 677.75L187.3 677.93L187.74 678.12L188.19 678.29L188.64 678.46L189.09 678.62L189.55 678.78L190.01 678.93L190.46 679.07L190.93 679.2L191.39 679.33L191.85 679.46L192.32 679.57L192.79 679.68L193.26 679.79L193.73 679.88L194.2 679.97L194.67 680.06L195.15 680.13L195.62 680.2L196.1 680.27L196.58 680.32L197.06 680.37L197.54 680.42L198.02 680.45L198.5 680.48L198.99 680.5L199.47 680.52L199.96 680.53L200.44 680.53L504.66 680.53L505.24 680.53L505.81 680.51L506.39 680.49L506.96 680.46L507.54 680.42L508.11 680.37L508.68 680.31L509.25 680.23L509.81 680.15L510.38 680.06L510.94 679.97L511.5 679.86L512.06 679.74L512.62 679.61L513.17 679.47L513.72 679.33L514.27 679.17L514.82 679.01L515.36 678.83L515.9 678.65L516.43 678.46L516.97 678.26L517.5 678.05L518.02 677.83L518.55 677.6L519.06 677.36L519.58 677.12L520.09 676.86L520.6 676.6L521.1 676.33L521.6 676.05L522.09 675.76L522.58 675.46L523.07 675.15L523.55 674.84L524.02 674.51L524.49 674.18L524.96 673.84L525.41 673.49L525.87 673.14L526.4 672.71L526.93 672.26L527.44 671.81L527.94 671.35L528.42 670.87L528.9 670.39L529.36 669.9L529.82 669.4L530.26 668.89L530.69 668.36L531.1 667.84L531.51 667.3L531.9 666.75L532.28 666.2L532.64 665.63L533 665.06L533.34 664.49L533.66 663.9L533.98 663.31L534.28 662.71L534.56 662.11L534.84 661.49L535.1 660.88L535.35 660.25L535.58 659.62L535.8 658.99L536 658.35L536.19 657.71L536.37 657.06L536.53 656.4L536.68 655.75L536.81 655.08L536.93 654.42L537.03 653.75L537.12 653.08L537.2 652.4L537.25 651.72L537.3 651.04L537.33 650.36L537.34 649.67L537.34 -59.7L537.31 -60.97L537.23 -62.23L537.09 -63.47L536.91 -64.7L536.67 -65.91L536.39 -67.11L536.05 -68.29L535.67 -69.45L535.24 -70.59L534.77 -71.71L534.25 -72.8L533.68 -73.88L533.08 -74.93L532.43 -75.95L531.75 -76.95L531.02 -77.92L530.26 -78.87L529.46 -79.78L528.63 -80.67L527.76 -81.52L526.85 -82.35L525.91 -83.14L524.95 -83.89L523.95 -84.61L522.92 -85.3L521.86 -85.95L520.78 -86.56L519.66 -87.13L518.53 -87.66L517.37 -88.15L516.18 -88.6L514.98 -89L513.75 -89.36L512.5 -89.68L511.24 -89.95L509.95 -90.17L508.65 -90.35L507.34 -90.48L506 -90.55L504.66 -90.58L428.17 -90.58L428.17 -86.05L428.16 -85.39L428.12 -84.74L428.07 -84.09L428.01 -83.44L427.93 -82.79L427.84 -82.15L427.73 -81.51L427.6 -80.87L427.46 -80.24L427.31 -79.62L427.14 -79L426.95 -78.38L426.75 -77.77L426.54 -77.16L426.32 -76.56L426.08 -75.97L425.82 -75.38L425.55 -74.8L425.27 -74.22L424.98 -73.65L424.67 -73.09L424.35 -72.54L424.01 -71.99L423.67 -71.45L423.31 -70.92L422.93 -70.4L422.55 -69.88L422.15 -69.38L421.74 -68.88L421.32 -68.4L420.88 -67.92L420.44 -67.45L419.98 -67L419.51 -66.55L419.03 -66.11L418.54 -65.69L418.03 -65.27L417.52 -64.87L416.99 -64.48L416.45 -64.1L416.08 -63.84L415.7 -63.59L415.32 -63.34L414.93 -63.1L414.54 -62.87L414.15 -62.64L413.75 -62.42L413.36 -62.21L412.95 -62L412.55 -61.8L412.14 -61.6L411.73 -61.41L411.32 -61.23L410.9 -61.05L410.49 -60.88L410.07 -60.72L409.64 -60.56L409.22 -60.41L408.79 -60.27L408.36 -60.13L407.93 -60L407.5 -59.88L407.06 -59.76L406.63 -59.65L406.19 -59.54L405.75 -59.45L405.31 -59.35L404.86 -59.27L404.42 -59.19L403.97 -59.12L403.52 -59.06L403.08 -59L402.63 -58.95L402.17 -58.91L401.72 -58.87L401.27 -58.85L400.82 -58.82L400.36 -58.81L399.91 -58.8L399.45 -58.8L298.66 -58.8L297.48 -58.82L296.31 -58.89L295.15 -59L294.01 -59.16L292.88 -59.35L291.77 -59.59L290.67 -59.87L289.59 -60.19L288.53 -60.55L287.49 -60.94L286.47 -61.38L285.47 -61.85L284.5 -62.35L283.54 -62.89L282.61 -63.46L281.71 -64.06L280.83 -64.7L279.98 -65.37L279.16 -66.06L278.36 -66.79L277.6 -67.54L276.86 -68.33L276.16 -69.13L275.49 -69.97L274.85 -70.82L274.25 -71.71L273.68 -72.61L273.15 -73.54L272.66 -74.49L272.2 -75.45L271.78 -76.44L271.41 -77.45L271.07 -78.47L270.78 -79.51L270.52 -80.57L270.32 -81.64L270.15 -82.72L270.03 -83.82L269.96 -84.93L269.94 -86.05L269.94 -90.58L200.44 -90.58L199.1 -90.55Z" id="b48E3Vnzdd"></path><path d="M272.74 438.6L272.74 249.45L448.41 249.45L448.41 438.6L272.74 438.6ZM274.99 436.34L446.16 436.34L446.16 251.7L274.99 251.7L274.99 436.34Z" id="d3QSwPqwtF"></path><path d="M410.11 86.61C410.11 86.61 410.11 86.61 410.11 86.61C410.11 87.97 410.11 88.72 410.11 88.87C410.11 88.87 410.11 88.87 410.11 88.87C340.91 88.87 302.47 88.87 294.78 88.87C294.78 88.87 294.78 88.87 294.78 88.87C294.78 87.52 294.78 86.76 294.78 86.61C294.78 86.61 294.78 86.61 294.78 86.61C363.98 86.61 402.42 86.61 410.11 86.61Z" id="idkt9K9br"></path><path d="M410.11 117.27C410.11 117.27 410.11 117.27 410.11 117.27C410.11 118.62 410.11 119.37 410.11 119.52C410.11 119.52 410.11 119.52 410.11 119.52C340.91 119.52 302.47 119.52 294.78 119.52C294.78 119.52 294.78 119.52 294.78 119.52C294.78 118.17 294.78 117.42 294.78 117.27C294.78 117.27 294.78 117.27 294.78 117.27C363.98 117.27 402.42 117.27 410.11 117.27Z" id="bikZfyHUH"></path><path d="M410.11 147.93C410.11 147.93 410.11 147.93 410.11 147.93C410.11 149.28 410.11 150.03 410.11 150.18C410.11 150.18 410.11 150.18 410.11 150.18C340.91 150.18 302.47 150.18 294.78 150.18C294.78 150.18 294.78 150.18 294.78 150.18C294.78 148.83 294.78 148.08 294.78 147.93C294.78 147.93 294.78 147.93 294.78 147.93C363.98 147.93 402.42 147.93 410.11 147.93Z" id="hlOzY2SFD"></path><path d="M-78.51 605.13L-78.34 605.19L-78.08 605.3L-77.73 605.45L-77.3 605.63L-76.79 605.86L-76.2 606.12L-75.53 606.43L-74.8 606.78L-74.01 607.17L-73.15 607.6L-72.24 608.08L-71.28 608.6L-70.28 609.16L-69.23 609.76L-68.14 610.41L-67.02 611.1L-65.86 611.83L-64.69 612.61L-63.49 613.44L-62.27 614.3L-61.04 615.22L-59.8 616.18L-58.56 617.18L-57.32 618.23L-56.08 619.33L-54.85 620.47L-53.63 621.66L-52.43 622.9L-51.25 624.19L-50.09 625.52L-48.96 626.9L-47.87 628.33L-46.81 629.81L-45.8 631.34L-44.83 632.91L-43.92 634.54L-43.06 636.2L-42.27 637.88L-41.56 639.56L-40.9 641.26L-40.31 642.96L-39.77 644.66L-39.29 646.36L-38.87 648.05L-38.49 649.73L-38.17 651.41L-37.89 653.06L-37.65 654.7L-37.46 656.32L-37.3 657.91L-37.18 659.47L-37.09 661L-37.04 662.49L-37.01 663.95L-37 665.36L-37.02 666.72L-37.06 668.04L-37.12 669.31L-37.19 670.51L-37.28 671.66L-37.37 672.75L-37.47 673.77L-37.58 674.72L-37.69 675.6L-37.8 676.4L-37.91 677.13L-38.01 677.77L-38.11 678.32L-38.19 678.78L-38.26 679.16L-38.31 679.43L-38.35 679.61L-38.37 679.68L-38.62 680.8L-39.69 680.39L-39.76 680.37L-39.93 680.3L-40.19 680.2L-40.54 680.05L-40.97 679.87L-41.48 679.64L-42.08 679.37L-42.74 679.06L-43.47 678.72L-44.26 678.32L-45.12 677.89L-46.03 677.42L-46.99 676.9L-47.99 676.34L-49.04 675.74L-50.13 675.09L-51.25 674.4L-52.41 673.66L-53.58 672.88L-54.78 672.06L-56 671.19L-57.23 670.28L-58.47 669.32L-59.71 668.32L-60.95 667.26L-62.19 666.17L-63.42 665.02L-64.64 663.83L-65.84 662.6L-67.02 661.31L-68.18 659.98L-69.31 658.59L-70.4 657.16L-71.46 655.69L-72.47 654.16L-73.44 652.58L-74.35 650.95L-75.21 649.29L-76 647.62L-76.72 645.93L-77.37 644.24L-77.96 642.54L-78.5 640.84L-78.98 639.14L-79.4 637.45L-79.78 635.76L-80.1 634.09L-80.38 632.43L-80.62 630.8L-80.81 629.18L-80.97 627.59L-81.09 626.03L-81.18 624.5L-81.24 623.01L-81.26 621.55L-81.27 620.14L-81.25 618.77L-81.21 617.46L-81.15 616.19L-81.08 614.98L-80.99 613.83L-80.9 612.75L-80.8 611.73L-80.69 610.77L-80.58 609.9L-80.47 609.09L-80.36 608.37L-80.26 607.73L-80.17 607.18L-80.08 606.71L-80.01 606.34L-79.96 606.06L-79.92 605.89L-79.9 605.82L-79.65 604.7L-78.58 605.1L-78.51 605.13ZM-78.36 608.47L-78.45 609.1L-78.55 609.81L-78.65 610.58L-78.76 611.42L-78.85 612.32L-78.95 613.28L-79.03 614.3L-79.11 615.37L-79.17 616.49L-79.22 617.67L-79.26 618.88L-79.28 620.14L-79.28 621.44L-79.25 622.78L-79.2 624.15L-79.13 625.56L-79.02 626.99L-78.89 628.45L-78.72 629.93L-78.52 631.43L-78.28 632.95L-78 634.48L-77.68 636.03L-77.32 637.58L-76.91 639.14L-76.46 640.71L-75.95 642.27L-75.39 643.83L-74.78 645.39L-74.11 646.94L-73.38 648.48L-72.6 650.01L-71.75 651.5L-70.87 652.96L-69.94 654.37L-68.97 655.74L-67.97 657.06L-66.94 658.35L-65.89 659.59L-64.81 660.79L-63.71 661.95L-62.59 663.06L-61.46 664.14L-60.32 665.17L-59.18 666.17L-58.04 667.12L-56.89 668.03L-55.75 668.91L-54.62 669.74L-53.5 670.54L-52.4 671.29L-51.31 672.01L-50.25 672.68L-49.21 673.32L-48.21 673.92L-47.23 674.48L-46.3 675.01L-45.4 675.5L-44.55 675.95L-43.74 676.36L-42.98 676.73L-42.28 677.07L-41.64 677.38L-41.06 677.64L-40.54 677.88L-40.09 678.07L-40.01 677.59L-39.91 677.03L-39.82 676.39L-39.72 675.69L-39.62 674.92L-39.51 674.08L-39.42 673.18L-39.32 672.22L-39.24 671.2L-39.16 670.13L-39.1 669L-39.05 667.83L-39.01 666.61L-38.99 665.35L-38.99 664.05L-39.02 662.72L-39.07 661.35L-39.14 659.94L-39.25 658.51L-39.38 657.05L-39.55 655.57L-39.75 654.07L-39.99 652.55L-40.27 651.02L-40.59 649.47L-40.95 647.92L-41.36 646.35L-41.81 644.79L-42.32 643.22L-42.88 641.66L-43.49 640.1L-44.16 638.55L-44.89 637.02L-45.67 635.49L-46.52 633.99L-47.4 632.54L-48.33 631.13L-49.3 629.76L-50.29 628.44L-51.32 627.15L-52.38 625.91L-53.46 624.71L-54.56 623.56L-55.67 622.44L-56.8 621.37L-57.94 620.33L-59.08 619.34L-60.23 618.38L-61.37 617.47L-62.51 616.6L-63.65 615.76L-64.77 614.97L-65.87 614.21L-66.95 613.5L-68.02 612.82L-69.05 612.18L-70.06 611.58L-71.03 611.02L-71.97 610.49L-72.87 610L-73.72 609.55L-74.53 609.14L-75.29 608.76L-75.99 608.42L-76.63 608.12L-77.21 607.85L-77.73 607.62L-78.18 607.43L-78.27 607.91L-78.36 608.47Z" id="ba6lstmpM"></path><path d="M-38.62 679.27C-38.62 679.27 -63.02 683.61 -82.76 671.73C-102.5 659.86 -110.1 636.27 -110.1 636.27C-110.1 636.27 -85.7 631.94 -65.96 643.81C-46.22 655.68 -44.09 672.18 -38.62 679.27Z" id="f35guEZIUX"></path><path d="M598.66 708.95L608.72 719.93L629.76 704.38L616.04 673.28L596.83 678.77L596.83 678.77L598.66 708.95Z" id="aZHvj4N3a"></path><path d="M622.65 689.44C622.65 689.44 653.54 683.34 651.71 704.38C649.88 725.41 634.33 732.73 634.33 732.73C634.33 732.73 627.02 731.82 627.93 739.13C628.85 746.45 601.41 762 588.6 747.36C589.39 742.75 595.69 705.8 596.48 701.18C596.48 701.18 605.07 707.12 607.81 704.38C610.55 701.64 621.53 707.12 621.53 707.12C621.75 703.59 621.94 701.03 622.65 689.44Z" id="a2jxwn941"></path><path d="M595.45 162.49L549.41 175.05L540.57 125.9L569.84 108.52L569.84 108.52L595.45 162.49Z" id="c9VvJkPH6"></path><path d="M543.32 67.37C523.62 67.37 507.65 83.34 507.65 103.04C507.65 122.74 523.62 138.71 543.32 138.71C563.01 138.71 578.98 122.74 578.98 103.04C578.98 83.34 563.01 67.37 543.32 67.37Z" id="a10jehMz5T"></path><path d="M557.05 119.67C545.54 121.2 533.57 112.85 531.03 101.52C530.83 100.01 530.38 98.55 529.7 97.18C527.93 94.29 523.89 93.74 520.57 94.41C517.24 95.07 514.09 96.63 510.71 96.81C505.48 97.08 500.46 93.86 497.67 89.43C494.89 85 494.1 79.54 494.47 74.32C494.72 74.58 496.73 76.69 496.98 76.95C498 74.8 498.39 72.4 498.11 70.03C500.81 69.31 503.7 70.05 505.72 71.98C507.93 72.21 506.26 67.88 507.9 66.38C508.59 65.75 509.64 65.87 510.58 65.88C515.28 65.93 519.08 62.33 522.79 59.43C529.2 54.43 536.71 51.01 544.7 49.44C550.01 48.4 555.65 48.24 560.69 50.21C564.82 51.84 568.28 54.79 571.49 57.87C579.37 65.45 586.35 74.36 589.63 84.79C592.29 93.34 592.37 102.48 589.85 111.07C588.52 115.53 584.54 130.8 578.71 131.16C571.39 131.6 575.78 118.89 566.67 118.34C563.43 118.15 560.26 119.24 557.05 119.67Z" id="b27OnLeTMk"></path><path d="M519.99 708.95L509.93 719.93L488.9 704.38L502.62 673.28L521.82 678.77L521.82 678.77L519.99 708.95Z" id="dFwgMZK7"></path><path d="M581.73 134.13C581.73 134.13 630.2 155.17 630.2 155.17C630.2 155.17 631.12 164.31 633.86 165.23C633.86 165.23 643.92 170.72 640.26 173.46C640.26 173.46 656.72 203.64 656.72 203.64C656.72 203.64 668.61 210.96 661.3 245.71C661.3 245.71 645.75 330.77 645.75 330.77C645.75 330.77 648.49 347.23 644.83 356.38C644.83 356.38 648.49 371.93 648.49 375.58C648.49 375.58 646.66 397.53 646.66 397.53C646.66 397.53 522.28 392.96 504.9 397.53C487.53 402.11 533.25 157 533.25 157C542.95 152.42 537.83 123.16 581.73 134.13Z" id="c2YOqMoj5i"></path><path d="M642.55 435.49C642.55 435.49 633.4 535.18 633.4 535.18C633.4 535.18 633.4 673.28 627 680.6C627 680.6 622.43 699.81 622.43 699.81C619.68 699.81 597.73 699.81 594.99 699.81C594.99 699.81 595.9 685.17 592.25 676.94C592.25 676.94 589.5 580 589.5 580C588.47 571.7 583.28 530.24 573.95 455.61C555.3 526.4 544.93 565.73 542.86 573.59C542.86 573.59 530.97 661.39 526.4 665.05C526.4 665.05 526.4 683.34 526.4 683.34C517 684.75 507.39 683.15 498.96 678.77C498.96 677.31 498.96 665.6 498.96 664.14C498.96 664.14 485.24 658.65 489.81 638.53C489.81 638.53 492.56 399.82 506.27 389.76C519.99 379.7 642.55 389.76 642.55 389.76C642.55 398.91 649.87 407.14 642.55 435.49Z" id="awDW7lgQK"></path><path d="M496.01 689.44C496.01 689.44 465.12 683.34 466.95 704.38C468.78 725.41 484.32 732.73 484.32 732.73C484.32 732.73 491.64 731.82 490.73 739.13C489.81 746.45 517.25 762 530.05 747.36C529.27 742.75 522.97 705.8 522.18 701.18C522.18 701.18 513.59 707.12 510.85 704.38C508.1 701.64 497.13 707.12 497.13 707.12C496.91 703.59 496.72 701.03 496.01 689.44Z" id="a34MBbLUaM"></path><path d="M484.78 392.96C483.14 400.64 482.22 404.91 482.04 405.77C482.04 405.77 449.11 457.9 476.55 463.38C476.55 463.38 502.16 413.08 502.16 413.08C502.34 412.29 503.26 408.33 504.9 401.19L484.78 392.96Z" id="aCGtPkrZR"></path><path d="M545.6 167.52C545.6 167.52 563.89 218.73 563.89 218.73C563.1 224.52 559.14 253.49 552 305.62L508.1 406.22C492.19 400.19 483.35 396.83 481.58 396.16C481.58 396.16 486.15 383.36 484.32 377.87C484.32 377.87 491.64 358.66 491.64 358.66C492.56 351.53 499.87 294.46 500.79 287.33C500.79 287.33 504.45 165.69 517.25 164.77C522.92 165.32 536.46 151.97 545.6 167.52Z" id="b1CFWR9TK9"></path><path d="M521.37 412.17L507.65 406.68L551.55 303.33L551.55 303.33L521.37 412.17Z" id="csCyqvV7F"></path><path d="M644.53 186.98C644.49 186.81 644.13 185.39 644.08 185.21C627 189.53 607.69 188.47 586.68 182.05C567.98 176.33 550.32 167.18 533.24 158.33C533.16 158.49 532.48 159.79 532.4 159.95C549.55 168.84 567.29 178.03 586.14 183.8C597.89 187.53 610.13 189.5 622.46 189.64C629.9 189.68 637.31 188.78 644.53 186.98Z" id="ggsdOXnzO"></path><path d="M330.59 408.27C330.59 408.27 330.59 408.27 330.59 408.27C330.59 520.34 330.59 582.6 330.59 595.05C330.59 595.05 330.59 595.05 330.59 595.05C226.31 595.05 168.38 595.05 156.79 595.05C156.79 595.05 156.79 595.05 156.79 595.05C156.79 482.98 156.79 420.72 156.79 408.27C156.79 408.27 156.79 408.27 156.79 408.27C261.07 408.27 319.01 408.27 330.59 408.27Z" id="nO3PT5Gtn"></path><path d="M83.63 75.32C83.63 75.32 54.93 67.67 30.96 104.13C8.61 138.12 -20.2 169.97 16.34 183.53C16.99 182.18 20.2 175.43 25.99 163.26C26.69 177.26 27.07 185.04 27.15 186.59C32.46 187.7 37.83 188.51 43.24 189.03C83.76 193.15 121.97 200 122.67 185.35C123.62 165.88 136.41 134.76 125.15 108.17C113.44 80.54 91.93 81.89 83.63 75.32Z" id="a31mWIChNI"></path><path d="M1.5 329.44C-0.06 369.34 -0.93 391.51 -1.11 395.94C-1.11 395.94 -28.49 449.4 -6.32 448.1C-6.32 448.1 13.24 395.94 13.24 395.94C13.76 391.77 16.37 370.9 21.06 333.35L1.5 329.44Z" id="b2yq2sdTvP"></path><path d="M151.45 317.7C156.14 357.6 158.75 379.77 159.27 384.2C159.27 384.2 182.74 419.41 164.49 431.14C164.49 431.14 146.24 389.42 146.24 389.42C144.93 384.9 138.41 362.3 126.68 321.62L151.45 317.7Z" id="cxfqvKjhj"></path><path d="M124.07 441.58C109.99 496.34 102.16 526.76 100.6 532.85C100.6 532.85 90.17 569.36 75.82 587.61C75.48 588.31 73.74 591.79 70.61 598.04L49.75 595.44L64.09 536.76L73.22 428.54L124.07 441.58Z" id="cu9DNUgJp"></path><path d="M124.07 441.58C109.99 496.34 102.16 526.76 100.6 532.85C100.6 532.85 90.17 569.36 75.82 587.61C75.48 588.31 73.74 591.79 70.61 598.04L49.75 595.44L64.09 536.76L73.22 428.54L124.07 441.58Z" id="dVfj4Fu9k"></path><path d="M80.24 589.14C71.43 609.92 66.53 621.47 65.55 623.78C65.55 623.78 71.52 644.52 65.83 655.51C65.83 655.51 60.96 686.42 60.96 686.42C60.19 686.3 54.01 685.32 53.23 685.2C53.23 685.2 34.47 720.52 12.3 710.43C12.3 710.43 13.71 676.34 13.71 676.34C13.71 676.34 32.88 638.44 35.31 622.98C37.75 607.52 44.58 580.88 44.58 580.88C49.34 581.98 61.23 584.73 80.24 589.14Z" id="d1l0lhTtuS"></path><path d="M80.24 589.14C71.43 609.92 66.53 621.47 65.55 623.78C65.55 623.78 71.52 644.52 65.83 655.51C65.83 655.51 60.96 686.42 60.96 686.42C60.19 686.3 54.01 685.32 53.23 685.2C53.23 685.2 34.47 720.52 12.3 710.43C12.3 710.43 13.71 676.34 13.71 676.34C13.71 676.34 32.88 638.44 35.31 622.98C37.75 607.52 44.58 580.88 44.58 580.88C49.34 581.98 61.23 584.73 80.24 589.14Z" id="g1DkJ77tdI"></path><path d="M34.1 519.81C34.1 519.81 27.58 568.05 35.4 598.04C35.92 599.96 38.53 609.52 43.23 626.73L69.3 626.73C69.3 563.36 69.3 528.16 69.3 521.11C69.3 521.11 70.61 435.06 66.7 428.54C62.78 422.02 14.54 422.02 14.54 422.02C18.45 441.58 32.14 510.03 34.1 519.81Z" id="b4nBnGZW5"></path><path d="M38.01 618.91C43.49 640.81 46.53 652.98 47.14 655.42C47.14 655.42 38.01 674.98 41.92 686.71C41.92 686.71 41.92 718 41.92 718C42.7 718 48.96 718 49.75 718C49.75 718 62.78 755.82 86.26 749.3C86.26 749.3 90.17 715.4 90.17 715.4C90.17 715.4 77.13 674.98 77.13 659.33C77.13 643.68 74.52 616.3 74.52 616.3C69.65 616.65 57.48 617.52 38.01 618.91Z" id="b67mvzdd6A"></path><path d="M83.65 94.74C64.2 94.74 48.44 110.5 48.44 129.94C48.44 149.39 64.2 165.15 83.65 165.15C103.09 165.15 118.85 149.39 118.85 129.94C118.85 110.5 103.09 94.74 83.65 94.74Z" id="i1lufWiWh"></path><path d="M54.31 190.57C54.31 190.57 94.73 190.57 94.73 190.57C94.73 190.57 88.21 163.19 94.73 155.37C101.25 147.54 59.53 143.63 59.53 143.63C58.48 153.02 62.13 187.97 54.31 190.57Z" id="awC1MsgZX"></path><path d="M95.38 183.4C95.38 183.4 61.48 180.79 54.96 183.4C48.44 186.01 30.19 199.05 30.19 199.05C30.8 204.53 33.84 231.91 39.31 281.2L113.64 296.84L125.37 279.89L137.11 255.12L131.89 223.82L130.59 205.57C111.81 193.75 100.08 186.36 95.38 183.4Z" id="e2vrhoINUu"></path><path d="M23.67 204.26C23.67 204.26 6.72 208.18 5.41 221.22C5.41 221.22 4.11 266.85 5.41 272.07C5.41 272.07 5.41 279.89 4.11 281.19C4.11 281.19 0.2 279.89 2.81 283.8C2.81 283.8 5.41 287.71 4.11 291.63C4.11 291.63 -1.11 290.32 1.5 296.84C1.5 296.84 5.41 304.67 4.11 305.97C4.11 305.97 -1.11 337.26 -1.11 337.26C0.37 337.52 7.76 338.83 21.06 341.17L43.23 264.24C32.8 232.25 26.28 212.26 23.67 204.26Z" id="a12u24ypLG"></path><path d="M125.37 204.26C130.42 204.55 134.91 207.54 137.11 212.09C141.02 219.91 151.45 270.76 150.15 274.68C148.84 278.59 146.24 273.37 148.84 281.19C151.45 289.02 148.84 287.71 150.15 292.93C151.45 298.15 144.93 292.93 150.15 298.15C155.36 303.36 157.97 304.67 155.36 307.27C152.75 309.88 148.84 304.67 152.75 309.88C156.67 315.1 156.67 322.92 156.67 322.92C154.58 323.35 144.15 325.53 125.37 329.44L116.25 256.42C121.11 228.6 124.16 211.22 125.37 204.26Z" id="f1fbhHNz4S"></path><path d="M25.99 198.99C28.7 197.63 31.99 198.73 33.35 201.44C33.36 201.45 33.36 201.47 33.37 201.48C35.33 205.49 45.14 225.54 62.78 261.64L95.38 282.5C109.46 276.24 117.29 272.76 118.85 272.07C118.85 272.07 135.8 245.99 130.59 232.95C127.05 224.11 122.91 210.51 120.61 202.66C120.25 201.42 120.96 200.12 122.2 199.76C122.87 199.57 123.58 199.68 124.16 200.06C124.6 200.36 128.16 202.73 128.6 203.03C130.03 203.97 131.02 205.44 131.36 207.12C132.01 210.23 135.23 225.8 141.02 253.81L127.98 281.19L127.98 307.27C133.46 391.77 136.5 438.71 137.11 448.1C137.11 448.1 103.21 442.88 69.3 436.36C35.4 429.84 -7.63 424.62 -7.63 424.62C-7.63 424.62 14.54 309.88 32.8 290.32C32.8 290.32 32.8 275.98 35.4 274.68C38.01 273.37 40.62 264.24 40.62 264.24C38.26 258.75 19.36 214.76 17 209.26C15.85 206.59 16.99 203.49 19.59 202.19C19.59 202.19 25.35 199.31 25.99 198.99Z" id="e2qLFo2ZZn"></path><path d="M88.65 82.49L47.4 88.89L38.86 126.59L60.11 125.77L66.04 111.92L66.04 125.54L75.85 125.16L81.54 103.11L85.09 126.59L119.95 125.87L118.53 98.13L118.53 98.13L88.65 82.49Z" id="a8wx1ICrKH"></path><path d="M51.7 129.94C51.7 133.72 49.95 136.79 47.79 136.79C45.63 136.79 43.88 133.72 43.88 129.94C43.88 126.16 45.63 123.1 47.79 123.1C49.95 123.1 51.7 126.16 51.7 129.94Z" id="b65ovYn3NZ"></path><path d="M361.1 343.8L361.1 315.38L360.01 315.38L360.01 343.8L331.59 343.8L331.59 344.89L360.01 344.89L360.01 373.31L361.1 373.31L361.1 344.89L389.53 344.89L389.53 343.8L389.53 343.8L361.1 343.8Z" id="a25xHcJtqO"></path><path d="M301.24 464.18C301.24 464.18 301.24 464.18 301.24 464.18C301.24 465.53 301.24 466.28 301.24 466.43C301.24 466.43 301.24 466.43 301.24 466.43C232.04 466.43 193.59 466.43 185.9 466.43C185.9 466.43 185.9 466.43 185.9 466.43C185.9 465.08 185.9 464.33 185.9 464.18C185.9 464.18 185.9 464.18 185.9 464.18C255.1 464.18 293.55 464.18 301.24 464.18Z" id="b40lHHYYb8"></path><path d="M301.24 494.84C301.24 494.84 301.24 494.84 301.24 494.84C301.24 496.19 301.24 496.94 301.24 497.09C301.24 497.09 301.24 497.09 301.24 497.09C232.04 497.09 193.59 497.09 185.9 497.09C185.9 497.09 185.9 497.09 185.9 497.09C185.9 495.74 185.9 494.99 185.9 494.84C185.9 494.84 185.9 494.84 185.9 494.84C255.1 494.84 293.55 494.84 301.24 494.84Z" id="dAHmqRcXy"></path><path d="M301.24 525.49C301.24 525.49 301.24 525.49 301.24 525.49C301.24 526.85 301.24 527.6 301.24 527.75C301.24 527.75 301.24 527.75 301.24 527.75C232.04 527.75 193.59 527.75 185.9 527.75C185.9 527.75 185.9 527.75 185.9 527.75C185.9 526.39 185.9 525.64 185.9 525.49C185.9 525.49 185.9 525.49 185.9 525.49C255.1 525.49 293.55 525.49 301.24 525.49Z" id="i4pBENQ46V"></path></defs><g><g><g><use xlink:href="#a25riiKt9D" opacity="1" fill="#f2f2f2" fill-opacity="1"></use><g><use xlink:href="#a25riiKt9D" opacity="1" fill-opacity="0" stroke="#000000" stroke-width="1" stroke-opacity="0"></use></g></g><g><use xlink:href="#bqtVoIrLe" opacity="1" fill="#155f53" fill-opacity="1"></use><g><use xlink:href="#bqtVoIrLe" opacity="1" fill-opacity="0" stroke="#000000" stroke-width="1" stroke-opacity="0"></use></g></g><g><use xlink:href="#b48E3Vnzdd" opacity="1" fill="#3f3d56" fill-opacity="1"></use><g><use xlink:href="#b48E3Vnzdd" opacity="1" fill-opacity="0" stroke="#000000" stroke-width="1" stroke-opacity="0"></use></g></g><g><use xlink:href="#d3QSwPqwtF" opacity="1" fill="#3f3d56" fill-opacity="1"></use><g><use xlink:href="#d3QSwPqwtF" opacity="1" fill-opacity="0" stroke="#000000" stroke-width="1" stroke-opacity="0"></use></g></g><g><use xlink:href="#idkt9K9br" opacity="1" fill="#3f3d56" fill-opacity="1"></use><g><use xlink:href="#idkt9K9br" opacity="1" fill-opacity="0" stroke="#000000" stroke-width="1" stroke-opacity="0"></use></g></g><g><use xlink:href="#bikZfyHUH" opacity="1" fill="#3f3d56" fill-opacity="1"></use><g><use xlink:href="#bikZfyHUH" opacity="1" fill-opacity="0" stroke="#000000" stroke-width="1" stroke-opacity="0"></use></g></g><g><use xlink:href="#hlOzY2SFD" opacity="1" fill="#3f3d56" fill-opacity="1"></use><g><use xlink:href="#hlOzY2SFD" opacity="1" fill-opacity="0" stroke="#000000" stroke-width="1" stroke-opacity="0"></use></g></g><g><use xlink:href="#ba6lstmpM" opacity="1" fill="#3f3d56" fill-opacity="1"></use><g><use xlink:href="#ba6lstmpM" opacity="1" fill-opacity="0" stroke="#000000" stroke-width="1" stroke-opacity="0"></use></g></g><g><use xlink:href="#f35guEZIUX" opacity="1" fill="#6c63ff" fill-opacity="1"></use><g><use xlink:href="#f35guEZIUX" opacity="1" fill-opacity="0" stroke="#000000" stroke-width="1" stroke-opacity="0"></use></g></g><g><use xlink:href="#aZHvj4N3a" opacity="1" fill="#a0616a" fill-opacity="1"></use><g><use xlink:href="#aZHvj4N3a" opacity="1" fill-opacity="0" stroke="#000000" stroke-width="1" stroke-opacity="0"></use></g></g><g><use xlink:href="#a2jxwn941" opacity="1" fill="#2f2e41" fill-opacity="1"></use><g><use xlink:href="#a2jxwn941" opacity="1" fill-opacity="0" stroke="#000000" stroke-width="1" stroke-opacity="0"></use></g></g><g><use xlink:href="#c9VvJkPH6" opacity="1" fill="#a0616a" fill-opacity="1"></use><g><use xlink:href="#c9VvJkPH6" opacity="1" fill-opacity="0" stroke="#000000" stroke-width="1" stroke-opacity="0"></use></g></g><g><use xlink:href="#a10jehMz5T" opacity="1" fill="#a0616a" fill-opacity="1"></use><g><use xlink:href="#a10jehMz5T" opacity="1" fill-opacity="0" stroke="#000000" stroke-width="1" stroke-opacity="0"></use></g></g><g><use xlink:href="#b27OnLeTMk" opacity="1" fill="#2f2e41" fill-opacity="1"></use><g><use xlink:href="#b27OnLeTMk" opacity="1" fill-opacity="0" stroke="#000000" stroke-width="1" stroke-opacity="0"></use></g></g><g><use xlink:href="#dFwgMZK7" opacity="1" fill="#a0616a" fill-opacity="1"></use><g><use xlink:href="#dFwgMZK7" opacity="1" fill-opacity="0" stroke="#000000" stroke-width="1" stroke-opacity="0"></use></g></g><g><use xlink:href="#c2YOqMoj5i" opacity="1" fill="#575a89" fill-opacity="1"></use><g><use xlink:href="#c2YOqMoj5i" opacity="1" fill-opacity="0" stroke="#000000" stroke-width="1" stroke-opacity="0"></use></g></g><g><use xlink:href="#awDW7lgQK" opacity="1" fill="#2f2e41" fill-opacity="1"></use><g><use xlink:href="#awDW7lgQK" opacity="1" fill-opacity="0" stroke="#000000" stroke-width="1" stroke-opacity="0"></use></g></g><g><use xlink:href="#a34MBbLUaM" opacity="1" fill="#2f2e41" fill-opacity="1"></use><g><use xlink:href="#a34MBbLUaM" opacity="1" fill-opacity="0" stroke="#000000" stroke-width="1" stroke-opacity="0"></use></g></g><g><use xlink:href="#aCGtPkrZR" opacity="1" fill="#a0616a" fill-opacity="1"></use><g><use xlink:href="#aCGtPkrZR" opacity="1" fill-opacity="0" stroke="#000000" stroke-width="1" stroke-opacity="0"></use></g></g><g><use xlink:href="#b1CFWR9TK9" opacity="1" fill="#575a89" fill-opacity="1"></use><g><use xlink:href="#b1CFWR9TK9" opacity="1" fill-opacity="0" stroke="#000000" stroke-width="1" stroke-opacity="0"></use></g></g><g><use xlink:href="#csCyqvV7F" opacity="1" fill="#000000" fill-opacity="1"></use><g><use xlink:href="#csCyqvV7F" opacity="1" fill-opacity="0" stroke="#000000" stroke-width="1" stroke-opacity="0"></use></g></g><g><use xlink:href="#ggsdOXnzO" opacity="1" fill="#000000" fill-opacity="1"></use><g><use xlink:href="#ggsdOXnzO" opacity="1" fill-opacity="0" stroke="#000000" stroke-width="1" stroke-opacity="0"></use></g></g><g><use xlink:href="#nO3PT5Gtn" opacity="1" fill="#155f53" fill-opacity="1"></use><g><use xlink:href="#nO3PT5Gtn" opacity="1" fill-opacity="0" stroke="#000000" stroke-width="1" stroke-opacity="0"></use></g></g><g><use xlink:href="#a31mWIChNI" opacity="1" fill="#2f2e41" fill-opacity="1"></use><g><use xlink:href="#a31mWIChNI" opacity="1" fill-opacity="0" stroke="#000000" stroke-width="1" stroke-opacity="0"></use></g></g><g><use xlink:href="#b2yq2sdTvP" opacity="1" fill="#ffb8b8" fill-opacity="1"></use><g><use xlink:href="#b2yq2sdTvP" opacity="1" fill-opacity="0" stroke="#000000" stroke-width="1" stroke-opacity="0"></use></g></g><g><use xlink:href="#cxfqvKjhj" opacity="1" fill="#ffb8b8" fill-opacity="1"></use><g><use xlink:href="#cxfqvKjhj" opacity="1" fill-opacity="0" stroke="#000000" stroke-width="1" stroke-opacity="0"></use></g></g><g><use xlink:href="#cu9DNUgJp" opacity="1" fill="#ffb8b8" fill-opacity="1"></use><g><use xlink:href="#cu9DNUgJp" opacity="1" fill-opacity="0" stroke="#000000" stroke-width="1" stroke-opacity="0"></use></g></g><g><use xlink:href="#dVfj4Fu9k" opacity="1" fill="#000000" fill-opacity="1"></use><g><use xlink:href="#dVfj4Fu9k" opacity="1" fill-opacity="0" stroke="#000000" stroke-width="1" stroke-opacity="0"></use></g></g><g><use xlink:href="#d1l0lhTtuS" opacity="1" fill="#2f2e41" fill-opacity="1"></use><g><use xlink:href="#d1l0lhTtuS" opacity="1" fill-opacity="0" stroke="#000000" stroke-width="1" stroke-opacity="0"></use></g></g><g><use xlink:href="#g1DkJ77tdI" opacity="1" fill="#000000" fill-opacity="1"></use><g><use xlink:href="#g1DkJ77tdI" opacity="1" fill-opacity="0" stroke="#000000" stroke-width="1" stroke-opacity="0"></use></g></g><g><use xlink:href="#b4nBnGZW5" opacity="1" fill="#ffb8b8" fill-opacity="1"></use><g><use xlink:href="#b4nBnGZW5" opacity="1" fill-opacity="0" stroke="#000000" stroke-width="1" stroke-opacity="0"></use></g></g><g><use xlink:href="#b67mvzdd6A" opacity="1" fill="#2f2e41" fill-opacity="1"></use><g><use xlink:href="#b67mvzdd6A" opacity="1" fill-opacity="0" stroke="#000000" stroke-width="1" stroke-opacity="0"></use></g></g><g><use xlink:href="#i1lufWiWh" opacity="1" fill="#ffb8b8" fill-opacity="1"></use><g><use xlink:href="#i1lufWiWh" opacity="1" fill-opacity="0" stroke="#000000" stroke-width="1" stroke-opacity="0"></use></g></g><g><use xlink:href="#awC1MsgZX" opacity="1" fill="#ffb8b8" fill-opacity="1"></use><g><use xlink:href="#awC1MsgZX" opacity="1" fill-opacity="0" stroke="#000000" stroke-width="1" stroke-opacity="0"></use></g></g><g><use xlink:href="#e2vrhoINUu" opacity="1" fill="#d0cde1" fill-opacity="1"></use><g><use xlink:href="#e2vrhoINUu" opacity="1" fill-opacity="0" stroke="#000000" stroke-width="1" stroke-opacity="0"></use></g></g><g><use xlink:href="#a12u24ypLG" opacity="1" fill="#d0cde1" fill-opacity="1"></use><g><use xlink:href="#a12u24ypLG" opacity="1" fill-opacity="0" stroke="#000000" stroke-width="1" stroke-opacity="0"></use></g></g><g><use xlink:href="#f1fbhHNz4S" opacity="1" fill="#d0cde1" fill-opacity="1"></use><g><use xlink:href="#f1fbhHNz4S" opacity="1" fill-opacity="0" stroke="#000000" stroke-width="1" stroke-opacity="0"></use></g></g><g><use xlink:href="#e2qLFo2ZZn" opacity="1" fill="#2f2e41" fill-opacity="1"></use><g><use xlink:href="#e2qLFo2ZZn" opacity="1" fill-opacity="0" stroke="#000000" stroke-width="1" stroke-opacity="0"></use></g></g><g><use xlink:href="#a8wx1ICrKH" opacity="1" fill="#2f2e41" fill-opacity="1"></use><g><use xlink:href="#a8wx1ICrKH" opacity="1" fill-opacity="0" stroke="#000000" stroke-width="1" stroke-opacity="0"></use></g></g><g><use xlink:href="#b65ovYn3NZ" opacity="1" fill="#ffb8b8" fill-opacity="1"></use><g><use xlink:href="#b65ovYn3NZ" opacity="1" fill-opacity="0" stroke="#000000" stroke-width="1" stroke-opacity="0"></use></g></g><g><use xlink:href="#a25xHcJtqO" opacity="1" fill="#2f2e41" fill-opacity="1"></use><g><use xlink:href="#a25xHcJtqO" opacity="1" fill-opacity="0" stroke="#000000" stroke-width="1" stroke-opacity="0"></use></g></g><g><use xlink:href="#b40lHHYYb8" opacity="1" fill="#f2f2f2" fill-opacity="1"></use><g><use xlink:href="#b40lHHYYb8" opacity="1" fill-opacity="0" stroke="#000000" stroke-width="1" stroke-opacity="0"></use></g></g><g><use xlink:href="#dAHmqRcXy" opacity="1" fill="#f2f2f2" fill-opacity="1"></use><g><use xlink:href="#dAHmqRcXy" opacity="1" fill-opacity="0" stroke="#000000" stroke-width="1" stroke-opacity="0"></use></g></g><g><use xlink:href="#i4pBENQ46V" opacity="1" fill="#f2f2f2" fill-opacity="1"></use><g><use xlink:href="#i4pBENQ46V" opacity="1" fill-opacity="0" stroke="#000000" stroke-width="1" stroke-opacity="0"></use></g></g></g></g></svg>